Coordinates
version=1
nRows=17
nColumns=24
inDegrees=yes

Units are S.I. units (second, meters, Newtons, ...)
Angles are in degrees.

endheader
time	pelvis_tilt	pelvis_list	pelvis_rotation	pelvis_tx	pelvis_ty	pelvis_tz	hip_flexion_r	hip_adduction_r	hip_rotation_r	knee_angle_r	ankle_angle_r	subtalar_angle_r	mtp_angle_r	hip_flexion_l	hip_adduction_l	hip_rotation_l	knee_angle_l	ankle_angle_l	subtalar_angle_l	mtp_angle_l	lumbar_extension	lumbar_bending	lumbar_rotation
      0.62500000	      1.07367257	      7.53401075	      0.61474967	     -0.83580826	      1.04848033	      0.29895957	     23.81188994	     -3.61247425	    -11.30857579	      0.72719809	     12.09262368	      2.35377834	      0.00560777	    -23.49462515	     12.54446121	     -2.52300606	     -1.29015615	      2.16954256	      5.94013003	      0.17327147	      2.16168497	     -6.01553042	     -3.21225735
      0.62916667	      1.10773813	      7.46931848	      0.70649013	     -0.82915808	      1.04828173	      0.29866671	     23.65659167	     -3.53820445	    -11.22534681	      0.35939904	     12.46784942	      2.25397819	     -0.01611941	    -23.69210720	     12.42398731	     -2.37053652	     -1.65528379	      1.78415950	      5.60215400	      0.17820574	      2.20246995	     -5.85610075	     -3.35572611
      0.63333333	      1.14893803	      7.44492215	      0.75524994	     -0.82261398	      1.04805160	      0.29846619	     23.50529801	     -3.48740180	    -10.97250882	     -0.01401016	     12.57707348	      2.12741010	     -0.04224360	    -23.86536562	     12.35696607	     -2.30746928	     -2.06231716	      1.35727036	      5.36731116	      0.20013088	      2.19619217	     -5.80010805	     -3.47237764
      0.63750000	      1.15884894	      7.42259050	      0.83592580	     -0.81603722	      1.04779934	      0.29822655	     23.39089567	     -3.45418816	    -10.82872914	     -0.42613566	     12.57813343	      2.09202628	     -0.04581376	    -23.98541448	     12.27941570	     -2.27674403	     -2.53023500	      1.25140251	      5.33102926	      0.20619762	      2.27687886	     -5.73041807	     -3.49051726
      0.64166667	      1.17853264	      7.39682071	      0.93757137	     -0.80939114	      1.04762673	      0.29798253	     23.23535299	     -3.42535522	    -10.63357359	     -0.81687209	     12.61168986	      2.02476745	     -0.04919736	    -24.08065664	     12.18365071	     -2.26566230	     -3.06679690	      1.04792863	      5.29043685	      0.21394863	      2.35208133	     -5.63279565	     -3.51773457
      0.64583333	      1.22005739	      7.27320011	      0.96521958	     -0.80246875	      1.04745407	      0.29792800	     22.98854458	     -3.25216578	    -10.11757995	     -1.10883649	     12.81267730	      1.50565619	     -0.06825778	    -24.21637465	     12.00039074	     -2.36684957	     -3.50868074	      0.14640211	      5.17179649	      0.26312230	      2.30509163	     -5.45570582	     -3.64892493
      0.65000000	      1.25972828	      7.25655662	      1.04103781	     -0.79587874	      1.04729674	      0.29769655	     22.81921148	     -3.23205412	     -9.92637615	     -1.52096101	     12.74340465	      1.43085570	     -0.07198621	    -24.30180269	     11.92084100	     -2.36583724	     -4.08449628	      0.03229421	      5.12785515	      0.27794326	      2.39499152	     -5.38368482	     -3.66595902
      0.65416667	      1.37478038	      7.14210151	      0.98490641	     -0.78905014	      1.04721503	      0.29782527	     22.48929958	     -3.03589206	     -9.22208910	     -1.76156802	     12.42420313	      0.48032539	     -0.10625607	    -24.44937586	     11.76456598	     -2.61089380	     -4.61564716	     -0.86513514	      5.03124364	      0.42457612	      2.35540681	     -5.21929906	     -3.81494495
      0.65833333	      1.41779839	      7.04543440	      1.04381431	     -0.78225551	      1.04713350	      0.29787894	     22.21119402	     -2.89698604	     -8.61812967	     -1.97487018	     12.04752292	     -0.35185467	     -0.14130521	    -24.48473157	     11.57224741	     -2.80739454	     -5.26154133	     -1.29552288	      5.09122468	      0.67186290	      2.32880911	     -5.09424104	     -3.87965245
      0.66250000	      1.44049613	      6.93900622	      1.11730211	     -0.77539713	      1.04707209	      0.29781756	     21.97419539	     -2.76982147	     -8.29381404	     -2.24265355	     11.78227877	     -0.70475463	     -0.15876940	    -24.47801733	     11.37155403	     -2.99431683	     -5.94873155	     -1.73777231	      5.19550278	      0.87540228	      2.39788354	     -4.94623371	     -3.91110340
      0.66666667	      1.45726380	      6.88027148	      1.21931857	     -0.76869906	      1.04703644	      0.29762325	     21.77402642	     -2.72110735	     -8.11567333	     -2.56208596	     11.68824048	     -0.70786256	     -0.15945838	    -24.43102982	     11.21806142	     -3.01836318	     -6.71527502	     -1.88715403	      5.17232714	      0.90213488	      2.45735209	     -4.85116577	     -3.91820271
      0.67083333	      1.47800236	      6.69360037	      1.25005288	     -0.76164360	      1.04702709	      0.29764145	     21.51623898	     -2.49698801	     -7.83112733	     -2.77176411	     11.04411928	     -1.16671367	     -0.16968594	    -24.37440449	     10.93972451	     -3.40511142	     -7.43305042	     -2.82726821	      5.30577376	      1.08674640	      2.53005311	     -4.57702429	     -3.99606216
      0.67500000	      1.56498130	      6.53605372	      1.26674451	     -0.75483628	      1.04712684	      0.29793237	     21.14548059	     -2.27401166	     -7.05564045	     -2.87379413	     10.43768982	     -2.42314253	     -0.16438209	    -24.33300254	     10.66013586	     -3.78556185	     -8.26932364	     -3.26246638	      5.52749448	      1.83188196	      2.45202053	     -4.39772241	     -4.04071872
      0.67916667	      1.56097911	      6.37341454	      1.35967172	     -0.74789512	      1.04718844	      0.29779253	     20.94341505	     -2.11750904	     -7.05719897	     -3.14275748	      9.96572622	     -2.44782843	     -0.15987576	    -24.18210577	     10.38306570	     -4.04027344	     -9.13563415	     -3.89437585	      5.61363058	      2.01868823	      2.56713950	     -4.17844655	     -4.06214152
      0.68333333	      1.56029699	      6.19319742	      1.42825775	     -0.74095762	      1.04728071	      0.29771930	     20.73059868	     -1.93424520	     -6.95364760	     -3.38835872	      9.42856282	     -2.63357744	     -0.15121940	    -24.00274392	     10.08784275	     -4.33489955	    -10.05245382	     -4.56220353	      5.68262949	      2.23775738	      2.65855377	     -3.91628088	     -4.10529465
      0.68750000	      1.57845773	      6.00267328	      1.49165293	     -0.73404487	      1.04743222	      0.29769304	     20.49990691	     -1.73796256	     -6.84090043	     -3.63388304	      8.85729975	     -2.91720567	     -0.13847740	    -23.80809367	      9.77325459	     -4.65176527	    -11.02040760	     -5.26814277	      5.75040451	      2.47611732	      2.72028383	     -3.65744370	     -4.14850974
      0.69166667	      1.59755689	      5.79711028	      1.54855907	     -0.72713996	      1.04761753	      0.29770138	     20.26744362	     -1.52537947	     -6.69296840	     -3.87357002	      8.23402773	     -3.28701215	     -0.11717783	    -23.58163388	      9.43661736	     -4.97753694	    -12.04319434	     -5.99840186	      5.82043846	      2.77738715	      2.79557268	     -3.37918078	     -4.18922541
